<svg width="96" height="96" xmlns="http://www.w3.org/2000/svg" xmlns:xlink="http://www.w3.org/1999/xlink" xml:space="preserve" overflow="hidden"><g transform="translate(-731 -562)"><path d="M741 583 741 637 817 637 817 583ZM781.122 617.464C779.948 618.631 778.052 618.631 776.878 617.464L744.431 585.017C744.427 585.013 744.427 585.007 744.431 585.003 744.433 585.001 744.435 585 744.438 585L813.562 585C813.568 585 813.572 585.005 813.572 585.01 813.572 585.013 813.571 585.015 813.569 585.017ZM766.586 610 743.017 633.569C743.013 633.573 743.007 633.573 743.003 633.569 743.001 633.567 743 633.565 743 633.562L743 586.438C743 586.432 743.005 586.428 743.01 586.428 743.013 586.428 743.015 586.429 743.017 586.431ZM768 611.414 775.464 618.878C777.416 620.831 780.582 620.831 782.535 618.879 782.535 618.879 782.536 618.878 782.536 618.878L790 611.414 813.569 634.983C813.573 634.987 813.573 634.993 813.569 634.997 813.567 634.999 813.565 635 813.562 635L744.438 635C744.432 635 744.428 634.995 744.428 634.99 744.428 634.987 744.429 634.985 744.431 634.983ZM791.414 610 814.983 586.431C814.987 586.427 814.993 586.427 814.997 586.431 814.999 586.433 815 586.435 815 586.438L815 633.562C815 633.568 814.995 633.572 814.99 633.572 814.987 633.572 814.985 633.571 814.983 633.569Z" stroke="#000000" stroke-width="3"/></g></svg>