<svg width="96" height="96" xmlns="http://www.w3.org/2000/svg" xmlns:xlink="http://www.w3.org/1999/xlink" xml:space="preserve" overflow="hidden"><g transform="translate(-875 -586)"><path d="M961.7 656.62 947.9 642.82C946.217 641.108 943.465 641.084 941.753 642.767 941.735 642.785 941.717 642.802 941.7 642.82L934.3 650.52C933.46 651.32 932.14 651.32 931.3 650.52L906.5 625.811C905.7 624.971 905.7 623.651 906.5 622.811L914.2 615.211C915.912 613.526 915.934 610.773 914.25 609.061 914.233 609.044 914.217 609.028 914.2 609.011L900.4 595.3C899.608 594.491 898.531 594.025 897.4 594 896.239 594.024 895.13 594.488 894.3 595.3L886.4 603.2C884.409 605.041 883.223 607.591 883.1 610.3 882.96 614.746 883.743 619.172 885.4 623.3 887.045 626.991 889.055 630.509 891.4 633.8 899.549 646.088 909.887 656.773 921.9 665.322 923.9 666.806 926.006 668.143 928.2 669.322 933.169 671.935 938.608 673.533 944.2 674.022 944.521 674.047 944.841 674.059 945.161 674.06 948.667 674.048 952.012 672.586 954.401 670.02L961.601 662.82C962.428 662 962.896 660.885 962.901 659.72 962.932 658.567 962.5 657.451 961.7 656.62ZM895.711 596.72C896.167 596.282 896.768 596.025 897.4 596 898.003 596.029 898.572 596.286 898.991 596.72L912.791 610.42C913.722 611.323 913.745 612.81 912.842 613.742 912.828 613.756 912.814 613.77 912.8 613.784L909.98 616.566 892.923 599.51ZM952.99 668.609 952.963 668.636 952.938 668.663C950.93 670.825 948.115 672.056 945.164 672.063 944.896 672.063 944.626 672.052 944.343 672.03 939.024 671.563 933.852 670.039 929.129 667.55 927.03 666.421 925.015 665.142 923.1 663.722L923.079 663.706 923.056 663.69C911.229 655.284 901.054 644.768 893.042 632.67 890.784 629.506 888.848 626.125 887.262 622.576 886.09 619.286 884.8 614.946 885.1 610.44L885.1 610.41 885.1 610.381C885.207 608.195 886.169 606.138 887.779 604.655L887.798 604.637 887.816 604.619 891.51 600.924 908.557 617.971 905.087 621.4C903.504 623.022 903.504 625.61 905.087 627.232L929.887 651.932C931.519 653.524 934.127 653.511 935.744 651.904L939.049 648.464 956.092 665.506ZM960.19 661.409 957.506 664.094 940.435 647.022 943.118 644.23C944.019 643.299 945.504 643.275 946.435 644.176 946.453 644.194 946.471 644.212 946.489 644.23L960.289 658.03C961.146 659.006 961.102 660.479 960.189 661.403Z" stroke="#000000" stroke-width="3"/></g></svg>