<svg width="96" height="96" xmlns="http://www.w3.org/2000/svg" xmlns:xlink="http://www.w3.org/1999/xlink" xml:space="preserve" overflow="hidden"><g transform="translate(-780 -330)"><path d="M866.7 400.62 852.9 386.82C851.217 385.108 848.465 385.084 846.753 386.767 846.735 386.785 846.717 386.802 846.7 386.82L839.3 394.52C838.46 395.32 837.14 395.32 836.3 394.52L811.5 369.811C810.7 368.971 810.7 367.651 811.5 366.811L819.2 359.211C820.912 357.526 820.934 354.773 819.25 353.061 819.233 353.044 819.217 353.027 819.2 353.011L805.4 339.3C804.608 338.491 803.531 338.025 802.4 338 801.239 338.024 800.13 338.488 799.3 339.3L791.4 347.2C789.409 349.041 788.223 351.591 788.1 354.3 787.96 358.746 788.743 363.172 790.4 367.3 792.045 370.991 794.055 374.509 796.4 377.8 804.549 390.088 814.887 400.773 826.9 409.322 828.9 410.806 831.006 412.143 833.2 413.322 838.169 415.935 843.608 417.533 849.2 418.022 849.521 418.047 849.841 418.059 850.161 418.06 853.667 418.048 857.012 416.586 859.401 414.02L866.601 406.82C867.428 406 867.896 404.885 867.901 403.72 867.932 402.567 867.5 401.451 866.7 400.62ZM800.711 340.72C801.167 340.282 801.768 340.025 802.4 340 803.003 340.029 803.572 340.286 803.991 340.72L817.791 354.42C818.722 355.323 818.745 356.81 817.842 357.742 817.828 357.756 817.814 357.77 817.8 357.784L814.98 360.566 797.923 343.51ZM857.99 412.609 857.963 412.636 857.938 412.663C855.93 414.824 853.115 416.056 850.164 416.063 849.896 416.063 849.626 416.052 849.343 416.03 844.024 415.563 838.852 414.039 834.129 411.55 832.03 410.421 830.015 409.142 828.1 407.722L828.079 407.706 828.056 407.69C816.229 399.284 806.054 388.768 798.042 376.67 795.784 373.506 793.848 370.125 792.262 366.576 791.09 363.286 789.8 358.946 790.1 354.44L790.1 354.41 790.1 354.381C790.207 352.195 791.169 350.138 792.779 348.655L792.798 348.637 792.816 348.619 796.51 344.924 813.557 361.971 810.087 365.4C808.504 367.022 808.504 369.61 810.087 371.232L834.887 395.932C836.519 397.524 839.127 397.512 840.744 395.904L844.049 392.464 861.092 409.506ZM865.19 405.409 862.506 408.094 845.435 391.022 848.118 388.23C849.019 387.299 850.504 387.275 851.435 388.176 851.453 388.194 851.471 388.212 851.489 388.23L865.289 402.03C866.146 403.007 866.102 404.479 865.189 405.403Z" stroke="#FFFFFF" stroke-width="3"/></g></svg>