<svg width="96" height="96" xmlns="http://www.w3.org/2000/svg" xmlns:xlink="http://www.w3.org/1999/xlink" xml:space="preserve" overflow="hidden"><g transform="translate(-592 -312)"><path d="M669.6 361.257 641.269 332.93C640.525 332.163 639.505 331.726 638.437 331.716L619.82 331.716C615.355 331.729 611.739 335.344 611.726 339.809L611.726 358.323C611.696 359.4 612.14 360.435 612.94 361.156L641.269 389.482C642.826 391.075 645.379 391.104 646.972 389.547 646.994 389.526 647.016 389.504 647.037 389.482L669.6 366.922C671.117 365.339 671.117 362.841 669.6 361.257ZM668.186 365.508 645.623 388.068C644.847 388.88 643.56 388.909 642.749 388.133 642.727 388.112 642.705 388.09 642.684 388.068L614.354 359.741 614.307 359.694 614.257 359.65C613.896 359.305 613.703 358.821 613.726 358.323L613.726 339.809C613.74 336.449 616.46 333.729 619.82 333.716L638.437 333.716C638.975 333.725 639.487 333.952 639.855 334.344L668.185 362.671C668.92 363.474 668.92 364.705 668.185 365.508Z" stroke="#FFFFFF" stroke-width="3"/><path d="M626.47 364.796 644.855 346.411 646.269 347.826 627.884 366.21Z" stroke="#FFFFFF" stroke-width="3"/><path d="M633.541 371.867 651.925 353.482 653.34 354.897 634.955 373.281Z" stroke="#FFFFFF" stroke-width="3"/><path d="M640.613 378.938 658.998 360.553 660.412 361.968 642.027 380.352Z" stroke="#FFFFFF" stroke-width="3"/><path d="M620.105 336.048C617.896 336.049 616.105 337.84 616.106 340.049 616.107 342.258 617.898 344.049 620.107 344.048 622.316 344.047 624.107 342.256 624.106 340.047 624.106 338.986 623.684 337.969 622.934 337.219 622.184 336.468 621.166 336.046 620.105 336.048ZM621.52 341.462C620.739 342.243 619.472 342.243 618.692 341.461 617.911 340.68 617.911 339.414 618.692 338.633 619.473 337.852 620.739 337.852 621.52 338.633 622.301 339.404 622.31 340.662 621.539 341.443 621.533 341.449 621.526 341.456 621.52 341.462Z" stroke="#FFFFFF" stroke-width="3"/></g></svg>