<svg width="96" height="96" xmlns="http://www.w3.org/2000/svg" xmlns:xlink="http://www.w3.org/1999/xlink" xml:space="preserve" overflow="hidden"><g transform="translate(-749 -280)"><path d="M826.7 298.2C826.2 297.8 825.6 297.6 825 297.6 815.8 297.8 807 301.4 800.2 307.6 798.2 306.6 795.9 306.6 793.9 307.6 787.1 301.4 778.3 297.8 769.1 297.6 768.5 297.6 767.9 297.8 767.4 298.2 763.1 301.9 760.5 307.9 760.5 314.4 760.5 320.9 763.1 326.9 767.4 330.6 767.9 331 768.5 331.2 769.1 331.2 771.4 331.2 773.7 330.9 776 330.4L768.1 349.3 779.8 346.6 785.4 356.9 796.5 330.2C796.5 330.2 796.5 330.2 796.5 330.2 796.5 330.2 796.5 330.2 796.5 330.2L807.7 356.9 813.3 346.6 825 349.3 817 330.1C819.6 330.8 822.3 331.1 824.9 331.1 825.5 331.1 826.1 330.9 826.6 330.5 830.9 326.8 833.5 320.8 833.5 314.3 833.5 307.8 831 301.9 826.7 298.2ZM803.6 317.4C803.6 322.1 800.7 325.9 797.1 325.9 793.5 325.9 790.6 322.1 790.6 317.4 790.6 312.7 793.5 308.9 797.1 308.9 800.7 308.9 803.6 312.7 803.6 317.4ZM769.2 329.2C769.1 329.2 768.9 329.2 768.8 329.1 764.9 325.8 762.6 320.3 762.6 314.5 762.6 308.7 764.9 303.2 768.8 299.9 768.9 299.8 769.1 299.8 769.2 299.8 777.7 300 785.9 303.3 792.2 308.9 789.8 311.1 788.5 314.2 788.6 317.5 788.6 319.2 788.9 320.8 789.6 322.3 783.6 326.5 776.5 329 769.2 329.2ZM785.2 352.2 780.9 344.3 771.6 346.5 778.5 329.8C782.8 328.6 786.9 326.6 790.5 324 791.6 325.8 793.4 327.1 795.5 327.7L785.2 352.2ZM821.7 346.5 812.4 344.3 808 352.2 797.8 327.8C800.2 327.5 802.4 326.1 803.7 324 807 326.4 810.7 328.3 814.6 329.5L821.7 346.5ZM825.4 329C825.3 329.1 825.1 329.1 825 329.1 817.6 328.9 810.5 326.5 804.6 322.1 805.2 320.6 805.6 318.9 805.6 317.3 805.7 314.1 804.4 310.9 802 308.7 808.4 303 816.5 299.8 825.1 299.6 825.2 299.6 825.4 299.6 825.5 299.7 829.4 303 831.7 308.5 831.7 314.3 831.6 320.2 829.3 325.7 825.4 329 825.4 329 825.4 329 825.4 329Z" stroke="#FFFFFF" stroke-width="3"/></g></svg>